<svg width="56" height="56" viewBox="0 0 56 56" fill="none" xmlns="http://www.w3.org/2000/svg">
<g id="ep:success-filled">
<path id="Vector" d="M28 7C33.5695 7 38.911 9.21249 42.8492 13.1508C46.7875 17.089 49 22.4305 49 28C49 33.5695 46.7875 38.911 42.8492 42.8492C38.911 46.7875 33.5695 49 28 49C22.4305 49 17.089 46.7875 13.1508 42.8492C9.21249 38.911 7 33.5695 7 28C7 22.4305 9.21249 17.089 13.1508 13.1508C17.089 9.21249 22.4305 7 28 7ZM25.384 32.143L20.719 27.475C20.5518 27.3078 20.3532 27.1751 20.1347 27.0846C19.9162 26.9941 19.682 26.9475 19.4455 26.9475C19.209 26.9475 18.9748 26.9941 18.7563 27.0846C18.5378 27.1751 18.3392 27.3078 18.172 27.475C17.8342 27.8128 17.6445 28.2708 17.6445 28.7485C17.6445 29.2262 17.8342 29.6842 18.172 30.022L24.112 35.962C24.2788 36.1301 24.4772 36.2635 24.6957 36.3545C24.9143 36.4456 25.1487 36.4924 25.3855 36.4924C25.6223 36.4924 25.8567 36.4456 26.0753 36.3545C26.2938 36.2635 26.4922 36.1301 26.659 35.962L38.959 23.659C39.1285 23.4925 39.2633 23.294 39.3557 23.0751C39.4481 22.8562 39.4962 22.6211 39.4973 22.3835C39.4984 22.1459 39.4525 21.9105 39.3621 21.6907C39.2718 21.4709 39.1388 21.2712 38.9709 21.1031C38.803 20.935 38.6034 20.8018 38.3838 20.7112C38.1641 20.6206 37.9287 20.5744 37.6911 20.5752C37.4535 20.576 37.2184 20.6239 36.9994 20.716C36.7804 20.8081 36.5817 20.9427 36.415 21.112L25.384 32.143Z" fill="#00A624"/>
</g>
</svg>
