<svg width="30" height="30" viewBox="0 0 30 30" xmlns="http://www.w3.org/2000/svg">
  <g id="material-symbols:dashboard-customize-rounded">
    <path id="Vector" d="M5 13.75C4.64584 13.75 4.34875 13.63 4.10875 13.39C3.86875 13.15 3.74917 12.8533 3.75 12.5V5C3.75 4.64584 3.87 4.34875 4.11 4.10875C4.35 3.86875 4.64667 3.74917 5 3.75H12.5C12.8542 3.75 13.1513 3.87 13.3913 4.11C13.6313 4.35 13.7508 4.64667 13.75 5V12.5C13.75 12.8542 13.63 13.1513 13.39 13.3913C13.15 13.6313 12.8533 13.7508 12.5 13.75H5ZM17.5 13.75C17.1458 13.75 16.8488 13.63 16.6088 13.39C16.3688 13.15 16.2492 12.8533 16.25 12.5V5C16.25 4.64584 16.37 4.34875 16.61 4.10875C16.85 3.86875 17.1467 3.74917 17.5 3.75H25C25.3542 3.75 25.6513 3.87 25.8913 4.11C26.1313 4.35 26.2508 4.64667 26.25 5V12.5C26.25 12.8542 26.13 13.1513 25.89 13.3913C25.65 13.6313 25.3533 13.7508 25 13.75H17.5ZM5 26.25C4.64584 26.25 4.34875 26.13 4.10875 25.89C3.86875 25.65 3.74917 25.3533 3.75 25V17.5C3.75 17.1458 3.87 16.8488 4.11 16.6088C4.35 16.3688 4.64667 16.2492 5 16.25H12.5C12.8542 16.25 13.1513 16.37 13.3913 16.61C13.6313 16.85 13.7508 17.1467 13.75 17.5V25C13.75 25.3542 13.63 25.6513 13.39 25.8913C13.15 26.1313 12.8533 26.2508 12.5 26.25H5ZM21.25 26.25C20.8958 26.25 20.5988 26.13 20.3588 25.89C20.1188 25.65 19.9992 25.3533 20 25V22.5H17.4688C17.1146 22.5 16.8229 22.38 16.5938 22.14C16.3646 21.9 16.25 21.6033 16.25 21.25C16.25 20.8958 16.37 20.5988 16.61 20.3588C16.85 20.1188 17.1467 19.9992 17.5 20H20V17.4688C20 17.1146 20.12 16.8229 20.36 16.5938C20.6 16.3646 20.8967 16.25 21.25 16.25C21.6042 16.25 21.9013 16.37 22.1413 16.61C22.3813 16.85 22.5008 17.1467 22.5 17.5V20H25.0313C25.3854 20 25.6771 20.12 25.9063 20.36C26.1354 20.6 26.25 20.8967 26.25 21.25C26.25 21.6042 26.13 21.9013 25.89 22.1413C25.65 22.3813 25.3533 22.5008 25 22.5H22.5V25.0313C22.5 25.3854 22.38 25.6771 22.14 25.9063C21.9 26.1354 21.6033 26.25 21.25 26.25Z" fill="#990000"/>
  </g>
</svg>
